<svg id="Capa_1" data-name="Capa 1" xmlns="http://www.w3.org/2000/svg" viewBox="0 0 460.53 375.23"><defs><style>.cls-1{fill:none;stroke:#000;stroke-miterlimit:10;stroke-width:4px;}</style></defs><title>cabello</title><path id="cabello" class="cls-1" d="M37.76,339.19c-4.07-41.95,3.92-74.55,19.53-96.41,0,0,9.88-12.08,24.2-19.64C83.62,222,85,221.42,85,221.42c3.92-1.74,5.9-2,5.89-2.43,0-1-11.36,1.76-12.81-1.83C63.26,180.73,77,74.28,171.39,39,202,27.54,246.27,53.51,247.05,65.83c.08,1.27-.07,5.79,1.22,6.11,1.8.43,5-7.66,6.1-9.77C263.15,45.48,334,36.91,377,76.82c25,23.17,38.32,60.59,35.22,87.29-.5,4.26-2.47,17.33-1.05,17.66,1.06.24-3.31-14.71,3.77-14.29,32.69,1.91,70.73,55.15,74.33,107,0,0,8.56,42.13-7.93,63.46C405.26,433.23-2.46,427.33,37.76,339.19Z" transform="translate(-32.98 -34.14)"/></svg>