<svg id="Capa_1" data-name="Capa 1" xmlns="http://www.w3.org/2000/svg" viewBox="0 0 711.53 203.15"><defs><style>.cls-1{fill:#101011;}.cls-1,.cls-2{stroke:#09090a;stroke-miterlimit:10;stroke-width:10px;}.cls-2{fill:#303333;}</style></defs><title>capa2</title><g id="capa1"><path class="cls-1" d="M125.58,290.31c2.94-.54,3.69-3.35,6.92-7.9,6.43-9,14.33-13.19,24.82-18.71,12-6.31,15-4.61,15.89-4,2.16,1.56,1.14,3.83,3.19,6.24,4.41,5.19,17.43,4.43,26.34-1.32,7-4.54,7.07-9.33,12.75-10.3s7.24,3.53,13.83,3.67c9.2.19,10.53-8.46,19.12-8.95,10.39-.6,14.13,11.74,24,9.76,3.88-.78,7-3.44,11.39-2,1.61.52,3.28,1.55,6.1,1.63a15.28,15.28,0,0,0,4.88-.81c2.82-1,28.16-12.37,31.32-36.21,2.48-18.72-10.3-33.33-14.24-37.83-32.5-37.13-97.28-22.78-102.51-21.55-32.29,7.6-52.47,25.63-62.23,34.57,0,0-29,26.6-36.61,59.8-1.26,5.51-2.6,14.37,1.62,22.78C114.86,284.51,120.58,291.22,125.58,290.31Z" transform="translate(-80.89 -98.26)"/><path class="cls-2" d="M717.5,118c6.35,3,16.17,6.25,26.8,3.74,11.7-2.76,14.3-10.18,21.91-9.35,11.19,1.22,21.57,19,21.21,35-.3,13.06-7.45,11.25-9.76,28.07-2,14.32,1.56,27.58-7.78,37.31h0L537.23,291.46l-217.36-79a42.9,42.9,0,0,1-18.76,4.67c-7,.07-14.24-1.7-27.45-9.15-21.77-12.27-20.07-17.63-30.92-21.56-17-6.17-40.82,0-54.51,13-11.32,10.8-13,23.78-28.22,30.91a81.28,81.28,0,0,0-11.64,6.11,63.46,63.46,0,0,0-15.87,13.83c-4.13,5.11-8.83,10.94-10.28,19.94-.5,3.06-1.94,12,3,19.51,2.69,4.11,6.06,5.87,5.7,6.51s-5.25-.78-22.78-9.35l-16.27-11.8c-.43-2.56-1.78-11.56.73-17.51.68-1.6,1.55-3.24,1.55-3.24,2.55-4.75,4-5.22,4.68-7.11,1.7-5-6.23-8.31-5.34-13.63,1-5.63,10.53-6.15,11.48-12.69.25-1.72-.19-3.13-1.06-5.21-5.83-14-13.42-17-14.49-25.22-.87-6.73,3.91-7.07,3.74-15.53-.21-9.94-6.86-12-7.21-19.42-.71-15,25.39-31.22,30.32-27.29,1.24,1,.54,2.77.82,5.29,1.47,13.32,26.33,28.28,47.18,25.63,13.16-1.67,13.82-9,39.05-26.85,19.58-13.87,34.16-24.2,55.32-27.25,11.88-1.72,26-3.76,40.68,2,4.14,1.64,8.79,4.09,16.12,4.88a47.37,47.37,0,0,0,23.19-3.66l16-1.71" transform="translate(-80.89 -98.26)"/></g></svg>