<svg id="Capa_1" data-name="Capa 1" xmlns="http://www.w3.org/2000/svg" viewBox="0 0 710.2 207.06"><defs><style>.cls-1{fill:#101011;}.cls-1,.cls-2{stroke:#0b0c0c;stroke-miterlimit:10;stroke-width:10px;}.cls-2{fill:#303333;}</style></defs><title>capa3</title><g id="capa1"><path class="cls-1" d="M152.48,238.94c12.36,1.69,17.13-5.39,25.63-3.25a19.19,19.19,0,0,1,11.79,9.76c2.53,5.16.6,8.44,3.26,10.58,4.9,4,16.47-3.27,17.08-3.66,5.64-3.6,8.62-7.83,11-11,11.76-15.68,20.35-27.12,29.29-26.85,8.69.26,16,11.51,21.16,9a9.46,9.46,0,0,0,3-2.4c2-2.51,1.05-4.47,2.28-5.74,2-2,7,.41,13.83,2.44,7.87,2.34,11.8,3.64,13.66,2.85,5.49-2.34,6.56-14.44,5.06-23.19-3.72-21.68-25.17-34.12-29.7-36.61-23.93-13.12-48.72-7.58-62.64-4.47-12.82,2.86-50.83,11.35-57.77,34.57-3.16,10.58.78,22-7.72,34.17-1.88,2.68-6.28,8.13-4.48,11.39C148,238,150,238.6,152.48,238.94Z" transform="translate(-68.56 -90.16)"/><path class="cls-2" d="M718,118.46c9.8,8,18.17,10.19,24.26,10.55,9.15.54,13.75-2.95,20.13.31,7.65,3.91,10,13.5,10.68,16.47,2.51,10.42-2.15,12.56-2.74,26.24-.86,19.69,8,32.86.05,41.18h0L537.68,291.93l-217.36-79a42.74,42.74,0,0,1-18.76,4.68c-7,.06-14.24-1.7-27.45-9.15-21.77-12.27-20.07-17.63-30.92-21.56-17-6.17-40.82,0-54.51,13-11.32,10.81-13,23.79-28.22,30.92-1.15.54-5,.63-7.25,3.5-2.48,3.22-.44,6.26-2,8.7-3.28,5.29-16.54-3.12-31.73,0-12.64,2.6-12.9,10.38-28.07,13-9.43,1.64-17.84.11-17.9-.81s6.83.15,11-4.07C90,245.58,83.26,238.61,87.8,228c2.34-5.49,10.4-18.31,10.18-19.38,0-.23-.18-.89-.37-.9h0c-1.39,0-2.89-4.94-2.89-4.94-1.49-4.88-1-.82-4.89-11.8-2.29-6.55-3.44-9.82-3.66-11.79-.91-8.42,2.87-11.69,3.66-18.31,1.66-13.79-13.63-18.21-14.27-30.93-.93-18.78,31-37.72,34.82-34.35,1,.9-.52,2.94-1.43,7.93-2.2,12.09,1.79,27.89,8.55,30.51,8.15,3.15,17-22.63,36.2-25.22,20.21-2.73,26.78,23.53,50,24,21.72.43,23.21-22.62,55.32-27.26,11.88-1.71,26.05-3.76,40.68,2,4.14,1.63,8.79,4.09,16.12,4.88A47.49,47.49,0,0,0,339,108.78l16-1.72" transform="translate(-68.56 -90.16)"/></g></svg>