<svg id="Capa_1" data-name="Capa 1" xmlns="http://www.w3.org/2000/svg" viewBox="0 0 772.38 286.23"><defs><style>.cls-1{fill:#303333;stroke:#0b0c0c;stroke-miterlimit:10;stroke-width:10px;}</style></defs><title>capa5</title><g id="capa1"><path class="cls-1" d="M738.56,142.73c3.23.91,11.42,3.72,14.82,11.07,2.78,6,1.42,13.14.59,17.46-1.38,7.18-3.56,8.64-2.44,12.05,1.52,4.62,6.12,3.61,12.05,9.45,6.63,6.53,10.17,16.91,7.38,19.83h0L538.31,291.31,321,212.29a92.64,92.64,0,0,1-29.54,4.88c-27.66,0-40-13.11-65.69-22.58-14.27-5.25-9.77-1-87.26-8.54-36.32-3.55-52-5.87-70.78-12.81-19.17-7.09-28.55-14.11-41.49-23.8-6.27-4.7-18.26-13.78-16.47-17.69,1.14-2.49,7,0,15.25-1.22,16.62-2.4,27.68-17.16,33.56-25,7.88-10.52,10.63-19,13.73-26.2C89.9,38.42,130.59,11.59,136,15.82c2.12,1.64-2.51,6.93-2,17.89.67,15.47,10.81,26.66,13,29.09,13,14.39,31,10.7,62.84,17.08,53.36,10.7,52,16.39,75.66,17.7,17.93,1,45.82-.77,80.83-17.09" transform="translate(-4.54 -10.38)"/></g></svg>