<svg id="Capa_1" data-name="Capa 1" xmlns="http://www.w3.org/2000/svg" viewBox="0 0 761.66 294.35"><defs><style>.cls-1{fill:#101011;}.cls-1,.cls-2{stroke:#0b0c0c;stroke-miterlimit:10;stroke-width:10px;}.cls-2{fill:#303333;}</style></defs><title>capa4</title><g id="capa1"><path class="cls-1" d="M37.37,191.93a154.48,154.48,0,0,1,25-6.1,163,163,0,0,1,39.05-1.22c39.78,2.64,42.79-7.71,69.56-4.28,40.65,5.22,47,30.77,94.58,39,23.16,4,34.61,2.47,38.46,1.63,24.77-5.38,54.14-25.5,53.67-44.34-.9-36.27-112.19-60.11-173.9-65.9-38.37-3.59-87-7.62-104.34,17.09-.37.54-27.51,39.22-36.61,46.37-4.78,3.76-9.76,7.32-9.76,7.32-2.3,1.65-4.25,3-5.62,3.92" transform="translate(-14.95 -3.25)"/><path class="cls-2" d="M716.1,115.21c22.1.55,31.52,7.52,36.07,13.41,9.89,12.79-1.31,22.85,8.25,49.27,5.19,14.33,15.15,29.81,9.52,35.69h0L537.28,292.3l-217.35-79a65.8,65.8,0,0,1-29.54,4.88c-23.27-1.78-32.4-16.34-54.1-29.89C209.64,171.62,166.4,158,128.9,167.52c-19.26,4.9-26.58,13.27-46.27,11.8-13.08-1-26-5.86-35.49,1.62-6,4.75-5.7,10.52-9.77,11-7.83.89-21.08-19.13-16.47-33.87,2.65-8.49,9.3-9.06,17.69-17.69,14.94-15.36,6-26,18.31-50.34C70.7,62.78,90.7,58.74,90.46,38.77c0-4.2-1-11.72,3-14.37s10.92,1.2,12.82,2.17C127.1,37.15,165.73,7.43,196,8.27c41.45,1.14,46.7,58.91,101.9,75.66,26,7.88,50.69,2.91,67.39-2.45" transform="translate(-14.95 -3.25)"/></g></svg>