<svg id="Capa_1" data-name="Capa 1" xmlns="http://www.w3.org/2000/svg" viewBox="0 0 720.06 195.14"><defs><style>.cls-1{fill:#101011;}.cls-1,.cls-2{stroke:#09090a;stroke-miterlimit:10;stroke-width:10px;}.cls-2{fill:#303333;}</style></defs><title>capa1</title><g id="capa1"><path class="cls-1" d="M141.94,228.42c2.61,10.51,27,16.65,30.92,15.52,2,.9-6.54,23,10.27,24.75,17.69,1.83,35.39-15.56,37.52-16.47s19.53,4,28.38,10.07,20.44,3.35,23.49.3c9.18-9.65,8.26-10.57,20.13-13,58.91-19,43.08-75.43-16.47-93.58-24.76-5.72-48.78,8.79-96.81,37.83C143,215.87,141,224.16,141.94,228.42Z" transform="translate(-79.72 -101.43)"/><path class="cls-2" d="M721.91,115.24c5.92,3.28,14.38,6.64,23.79,5.18,11-1.69,13.37-8.39,20.14-8.23,14.36.33,33.22,31.16,28.07,57.66-4.15,21.33-24.41,42.71-24.41,42.71L536.86,291.27l-217.36-79s-34.57,12.61-46.37-.4-11.39-34.58-17.9-33.36-36.2,4.88-45.56,15.86-41.9,40.68-50,35.8c-4.34-2.6-11.81-5-18.76-3.16-6.08,1.58-11.75,6.37-14.6,17-6.1,22.78-7.32,25.22,0,31.32s0,6.51,0,6.51L99.84,265.42s-11.8-5.17-6.1-11.27,5.69-9.47,5.29-16.94,8.54-11.94,4.47-21.7-14.09-30.51-11.31-37-4.15-8.14-7-13.42,7.32-24.41,21.15-24.41,60.61,24.41,63.46,25.22,36.61,2.44,41.89-2S256,114.63,268.65,111s43.53-6.1,46.38.82,18.71-.41,23.18-3.66c0,0,2-.24,16-1.72" transform="translate(-79.72 -101.43)"/></g></svg>