<svg id="Capa_1" data-name="Capa 1" xmlns="http://www.w3.org/2000/svg" viewBox="0 0 434.13 246.52"><defs><style>.cls-1{fill:#fdffff;}.cls-1,.cls-2{stroke:#000;stroke-miterlimit:10;stroke-width:7px;}.cls-2{fill:none;}</style></defs><title>cat-cabeza</title><g id="cabeza_de_cat" data-name="cabeza de cat"><path class="cls-1" d="M438.36,142.07a101.94,101.94,0,0,0-7.42-19.41,111,111,0,0,0-8.41-14h0q-.76-11-1.55-22a231.56,231.56,0,0,0-8.13-26.84c-3.75-10.11-6.24-16.68-11.39-24.41a83.45,83.45,0,0,0-14.24-16.27,185,185,0,0,1-20.34,20.74A185.68,185.68,0,0,1,348,54.27s-2,1.69-2.85,1.47h0s13.11,3.38,13,3.54c-.16.33-51.45-17.65-104.33-19.36-27.35-.88-62,2.36-102.52,16.78-.57.2,16.56-4.94,16.35-5.86-.12-.5-5,.27-5.77.37C154.1,52.32,139,45.78,107.35,14.6L93.1,40.16a152.68,152.68,0,0,0-10,57.59L86,98.87a132.12,132.12,0,0,0-10.42,12.67A119,119,0,0,0,63,133.33c-5.5,4.33-26.12,21.56-24.6,45.79,1.53,24.39,24.51,40.2,33.91,46.67,41.05,28.24,77.91,21.33,178.49,24.29,57.07,1.67,129.25,6.44,168.77-11.8,6.25-2.89,38.11-17.59,44.71-42.83.12-.45.26-1,.42-1.78C470.26,167.63,443.39,146,438.36,142.07Z" transform="translate(-34.83 -8.88)"/></g><line class="cls-2" x1="135.17" y1="164.06" x2="75.37" y2="154.19"/><line class="cls-2" x1="130.66" y1="193.3" x2="83.51" y2="219.61"/><line class="cls-2" x1="287.58" y1="171.29" x2="347.38" y2="161.42"/><line class="cls-2" x1="292.09" y1="200.53" x2="339.24" y2="226.84"/></svg>