<svg id="Capa_1" data-name="Capa 1" xmlns="http://www.w3.org/2000/svg" viewBox="0 0 406.64 241.29"><defs><style>.cls-1{fill:#fff;}.cls-1,.cls-2{stroke:#000;stroke-miterlimit:10;stroke-width:5px;}</style></defs><title>cat-dormido</title><ellipse class="cls-1" cx="203.32" cy="118.59" rx="200.82" ry="116.09"/><g id="cabeza_de_cat" data-name="cabeza de cat"><path class="cls-1" d="M366.2,180.7a53.52,53.52,0,0,0-3.86-10.1,59.49,59.49,0,0,0-4.37-7.29h0l-.81-11.46a122.27,122.27,0,0,0-4.23-14c-1.95-5.25-3.24-8.67-5.92-12.69a43.53,43.53,0,0,0-7.41-8.46A96.75,96.75,0,0,1,329,127.53a97.53,97.53,0,0,1-9.84,7.51s-1,.88-1.48.76h0s6.81,1.76,6.77,1.85-26.76-9.18-54.26-10.07c-14.22-.46-32.21,1.23-53.3,8.72-.3.11,8.61-2.56,8.49-3.05-.06-.26-2.62.15-3,.2-4,.58-11.88-2.82-28.35-19l-7.41,13.29a79.36,79.36,0,0,0-5.22,30l1.5.58a67.4,67.4,0,0,0-5.41,6.59A61.29,61.29,0,0,0,171,176.15c-2.87,2.25-13.59,11.21-12.8,23.81s12.75,20.91,17.64,24.27c21.34,14.69,40.51,11.09,92.81,12.63,29.68.87,67.21,3.35,87.76-6.14,3.25-1.5,19.82-9.14,23.25-22.27.06-.23.13-.52.22-.92C382.78,194,368.81,182.74,366.2,180.7Z" transform="translate(-41.28 -18.21)"/></g><line class="cls-1" x1="185.37" y1="178.54" x2="154.28" y2="173.41"/><line class="cls-1" x1="183.02" y1="193.75" x2="158.51" y2="207.43"/><line class="cls-1" x1="264.62" y1="182.3" x2="295.72" y2="177.17"/><line class="cls-1" x1="266.97" y1="197.51" x2="291.49" y2="211.19"/><path class="cls-1" d="M116,153.12a244,244,0,0,0,52,33.64c30.8,14.77,56.93,19.27,75.51,22.33,18.32,3,39,6.28,66.06,3.53,0,0,37.11-3.77,60.44-18.6a107.21,107.21,0,0,0,9.13-6.38c4.17-3.36,4.22-4.11,6.23-5.07,4.4-2.1,11.64-2.1,15.65,2.18,4.76,5.06,2.23,13.22,1.16,16.66a31,31,0,0,1-8.72,13.37C362.79,242.37,315,250.24,315,250.24c-31.16,5.14-70.55,11.63-122.59,1.16A303.69,303.69,0,0,1,81.65,204.66" transform="translate(-41.28 -18.21)"/><path class="cls-2" d="M354.67,203.08A61,61,0,0,0,343,215.25l19.2,1.52-8.11,10.87,13.91-1-7,7,10.36-5.51c11.83-6.27,11.28-5.91,11.92-6.3,3.39-2.05,14.93-9,19.12-21.63,1.12-3.38,2.61-8.1.28-12.59-.18-.34-2.68-5-7.6-6-1.22-.25-3.57-.47-11.8,3.78-4.36,2.26-4.11,2.53-11.52,6.85-5.48,3.2-7.52,4.16-11.84,7.06C358.45,200.31,356.63,201.54,354.67,203.08Z" transform="translate(-41.28 -18.21)"/></svg>