<svg id="Capa_1" data-name="Capa 1" xmlns="http://www.w3.org/2000/svg" viewBox="0 0 291.42 271.5"><defs><style>.cls-1{fill:none;stroke:#000;stroke-miterlimit:10;stroke-width:4px;}</style></defs><title>cuerpo-karen</title><path class="cls-1" d="M139.7,213.55s59.76-61.07,59.76-78.77V111l3,23.18s6.57,54.67,36.61,61.63c22.18,5.14,39.78-13.37,41.49-65.9.76-23.13.71-24.89.53-22.34a18.82,18.82,0,0,0,2.61,10.89c11.45,19.25,55.95,69.53,89,70" transform="translate(-106.72 -104.68)"/><path class="cls-1" d="M199.46,111c-.59-4.12-.52,2.1.89,12.6A82,82,0,0,0,199.46,111Z" transform="translate(-106.72 -104.68)"/><path class="cls-1" d="M370.25,189.3" transform="translate(-106.72 -104.68)"/><path class="cls-1" d="M379.05,191a19.42,19.42,0,0,0-15.45,4.82q-.63-3.42-1.33-6.72s6.33,1,6.36.95c-.48-.14-7.28-1.32-7.78-1.52-17.77-7.1-34.22-21.76-37.4-25.07-29.55-30.75-15-11.34-40.46-46.38-.72-1-.51-9.32-1.85-9.47-4.7-.52,1.69,30.69-4.26,54-5.43,21.31-13,36-34.71,34.22-8.67-.73-20.73-6.79-30-27.12-6.56-14.34-10.11-32.7-11.78-45.09-.23,23.3-12.23,34.51-24.27,47.84s-11.12,15.5-23.91,28.34c-.66.66-8.54,11.89-19.22,11.28-.66,0,6.93,1.78,6.75,2.5s-.3,1.4-.45,2.1c-11.78-8.25-28.87-.55-30.38,13.93-2,16.43,16.74,27.59,30.11,18.54a37.41,37.41,0,0,0,7.7,15.62c22.39,25.71,61,42.7,104.9,42.7,63.74-1.43,116.1-31.17,116.25-78.69,13.37,7,30.11-4.31,28.16-19.68A19.57,19.57,0,0,0,379.05,191Z" transform="translate(-106.72 -104.68)"/><path class="cls-1" d="M267.58,305.66c3.75,14.63-1.3,25.6-10.61,33.91.16.15,5.46-3.59,8.5-10.24a43.78,43.78,0,0,0,2.75-8.93c.84-4.28.33-5.06,1.26-6.18,1.71-2.06,5-.53,16.52.77,7.63.86,12.83,1.45,18.51,4.88a32.1,32.1,0,0,1,8.85,7.93,41,41,0,0,1,3.25,5.49c3.83,7.36,5.15,15.46,4.88,18.1-1.72,16.77-90.62,38.75-124.47,5.5-2.65-2.61-8.36-8.36-7.73-15.26,1.36-15,35.06-23.14,38.44-23.59,1.4-.19,4.86,0,7.32-1.22a1.36,1.36,0,0,1,1-.21c.8.24,1,1.62,1.08,1.84.73,3.42,18.88,21.26,18.87,21.27S240.3,323,240.3,323a19.79,19.79,0,0,1-4.49-7.83,66.89,66.89,0,0,1-.44-9.54" transform="translate(-106.72 -104.68)"/></svg>