<svg id="Capa_1" data-name="Capa 1" xmlns="http://www.w3.org/2000/svg" viewBox="0 0 460.53 375.23"><defs><style>.cls-1{fill:#aeafaf;}.cls-1,.cls-2,.cls-3,.cls-4{stroke:#000;stroke-miterlimit:10;stroke-width:4px;}.cls-2{fill:#fff;}.cls-3{fill:#4f5151;}.cls-4{fill:none;}</style></defs><title>karen</title><path id="cabello" class="cls-1" d="M16.31,312.59c-4.08-42,3.91-74.55,19.52-96.41,0,0,9.88-12.09,24.2-19.65,2.13-1.12,3.47-1.72,3.47-1.72,3.92-1.74,5.9-2,5.89-2.43,0-1-11.36,1.77-12.81-1.83-14.78-36.43-1-142.88,93.35-178.17C180.54.93,224.81,26.9,225.59,39.23c.08,1.27-.07,5.79,1.22,6.1,1.8.44,5-7.65,6.11-9.76,8.77-16.69,79.6-25.26,122.64,14.64,25,23.18,38.33,60.59,35.22,87.3-.5,4.25-2.47,17.33-1,17.65,1.06.24-3.31-14.7,3.77-14.29,32.69,1.92,70.73,55.16,74.33,107,0,0,8.56,42.12-7.93,63.45C383.8,406.63-23.92,400.73,16.31,312.59Z" transform="translate(-11.52 -7.54)"/><path class="cls-2" d="M213,279c-.82,3.62,0,5.4,0,13,0,2.68-.12,2.57,0,3,2.23,7.87,28.16,11.18,33,3,.67-1.14.78-3.09,1-7a41.88,41.88,0,0,0-1-12c-.77-3.18-1.15-4.77-2-6-5.1-7.41-23.48-7.1-29,1A14.79,14.79,0,0,0,213,279Z" transform="translate(-11.52 -7.54)"/><path class="cls-3" d="M224,297c-10-2.14-11.64-5.22-12-6s-.38-1.39-1-2c-1.7-1.67-5.15-1-11,1-6.57,2.29-9.86,3.44-14,6-8.07,5-17.43,10.79-18.17,19-.64,7.08,5.37,12.94,7.73,15.25,33.85,33.26,122.75,11.27,124.47-5.49.27-2.64-1-10.74-4.88-18.1a41,41,0,0,0-3.25-5.49,31.9,31.9,0,0,0-8.85-7.94c-5.68-3.43-10.88-4-18.51-4.88-11.47-1.3-14.81-2.82-16.52-.76-.38.45,0,.82.06,1.7,0,3.79-5.62,7.36-10.08,8.68C234.1,299.16,230.73,298.44,224,297Z" transform="translate(-11.52 -7.54)"/><path class="cls-4" d="M118.25,187S178,125.87,178,108.18V84.38l3.05,23.19s6.57,54.66,36.61,61.63c22.18,5.13,39.78-13.37,41.49-65.9.76-23.13.71-24.9.53-22.35a18.82,18.82,0,0,0,2.61,10.89c11.45,19.25,55.95,69.54,89,70" transform="translate(-11.52 -7.54)"/><path class="cls-2" d="M178,84.38c-.59-4.12-.52,2.11.89,12.6A82.17,82.17,0,0,0,178,84.38Z" transform="translate(-11.52 -7.54)"/><path class="cls-2" d="M348.8,162.69" transform="translate(-11.52 -7.54)"/><path class="cls-2" d="M357.59,164.34a19.45,19.45,0,0,0-15.44,4.82c-.43-2.27-.87-4.52-1.34-6.72,0,0,6.33,1,6.36,1-.48-.14-7.28-1.33-7.78-1.53-17.77-7.09-34.22-21.76-37.39-25.06-29.56-30.76-15-11.34-40.47-46.39-.72-1-.51-9.32-1.85-9.47-4.7-.52,1.69,30.7-4.26,54-5.43,21.32-13,36.06-34.71,34.23-8.67-.74-20.73-6.79-30-27.12-6.56-14.35-10.11-32.7-11.78-45.1-.23,23.3-12.23,34.51-24.27,47.85s-11.12,15.5-23.91,28.33c-.66.66-8.54,11.9-19.22,11.29-.66,0,6.93,1.78,6.76,2.5s-.31,1.4-.46,2.1C106,180.8,88.92,188.49,87.41,203c-2,16.42,16.74,27.58,30.11,18.53a37.39,37.39,0,0,0,7.7,15.63c22.39,25.71,61,42.69,104.9,42.69,63.74-1.42,116.1-31.16,116.25-78.69,13.37,7,30.11-4.31,28.16-19.67A19.57,19.57,0,0,0,357.59,164.34Z" transform="translate(-11.52 -7.54)"/></svg>