<svg id="Capa_1" data-name="Capa 1" xmlns="http://www.w3.org/2000/svg" viewBox="0 0 406.64 241.29"><defs><style>.cls-1{fill:#fff;}.cls-1,.cls-2{stroke:#000;stroke-miterlimit:10;stroke-width:5px;}</style></defs><title>sleep-cat-body</title><ellipse class="cls-1" cx="203.32" cy="118.59" rx="200.82" ry="116.09"/><path class="cls-1" d="M116,153.12a244,244,0,0,0,52,33.64c30.8,14.77,56.93,19.27,75.51,22.33,18.32,3,39,6.28,66.06,3.53,0,0,37.11-3.77,60.44-18.6a107.21,107.21,0,0,0,9.13-6.38c4.17-3.36,4.22-4.11,6.23-5.07,4.4-2.1,11.64-2.1,15.65,2.18,4.76,5.06,2.23,13.22,1.16,16.66a31,31,0,0,1-8.72,13.37C362.79,242.37,315,250.24,315,250.24c-31.16,5.14-70.55,11.63-122.59,1.16A303.69,303.69,0,0,1,81.65,204.66" transform="translate(-41.28 -18.21)"/><path class="cls-2" d="M354.67,203.08A61,61,0,0,0,343,215.25l19.2,1.52-8.11,10.87,13.91-1-7,7,10.36-5.51c11.83-6.27,11.28-5.91,11.92-6.3,3.39-2.05,14.93-9,19.12-21.63,1.12-3.38,2.61-8.1.28-12.59-.18-.34-2.68-5-7.6-6-1.22-.25-3.57-.47-11.8,3.78-4.36,2.26-4.11,2.53-11.52,6.85-5.48,3.2-7.52,4.16-11.84,7.06C358.45,200.31,356.63,201.54,354.67,203.08Z" transform="translate(-41.28 -18.21)"/></svg>